<?xml version="1.0" encoding="iso-8859-1"?>
<!-- Generator: Adobe Illustrator 19.0.0, SVG Export Plug-In . SVG Version: 6.00 Build 0)  -->
<svg version="1.1" id="Layer_1" xmlns="http://www.w3.org/2000/svg" xmlns:xlink="http://www.w3.org/1999/xlink" x="0px" y="0px"
	 viewBox="0 0 512 512" style="enable-background:new 0 0 512 512;" xml:space="preserve">
<path style="fill:#B1D7C5;" d="M370.514,398.434L370.514,398.434v34.54H128.009v-26.197l-12.223-314.07h266.628L370.514,398.434z"/>
<path style="fill:#B93B3E;" d="M220.108,336.821c0,14.059-11.392,25.454-25.451,25.454c-14.053,0-25.451-11.395-25.451-25.454
	c0-14.057,11.398-25.453,25.451-25.453C208.716,311.368,220.108,322.764,220.108,336.821z M259.221,243.597
	c-11.314,0-20.484,9.173-20.484,20.488c0,11.315,9.171,20.489,20.484,20.489c11.314,0,20.49-9.173,20.49-20.489
	C279.711,252.769,270.534,243.597,259.221,243.597z"/>
<path style="fill:#7E9332;" d="M173.59,264.082c0,4.917-3.976,8.904-8.88,8.904h-1.877c-4.904,0-8.88-3.987-8.88-8.904
	c0-4.917,3.976-8.904,8.88-8.904h1.877C169.616,255.177,173.59,259.164,173.59,264.082z M270.798,334.26h-1.877
	c-4.904,0-8.88,3.987-8.88,8.904c0,4.917,3.976,8.904,8.88,8.904h1.877c4.904,0,8.88-3.987,8.88-8.904
	C279.678,338.247,275.702,334.26,270.798,334.26z"/>
<g>
	<path style="fill:#FF4328;" d="M112.058,406.777h274.081c8.739,0,14.249,8.797,15.891,19.123l10.65,66.979
		c1.643,10.327-7.156,19.121-15.891,19.121h-28.788l-3.679-14.277c-1.948-7.569-5.388-14.407-11.973-14.407H145.848
		c-6.585,0-10.026,6.84-11.971,14.407L130.196,512h-28.784c-8.741,0-17.534-8.791-15.891-19.121L96.17,425.9
		C97.809,415.569,103.319,406.777,112.058,406.777L112.058,406.777z"/>
	<path style="fill:#FF4328;" d="M456.341,93.055l-5.68,145.933c-0.187,4.796-4.124,8.557-8.868,8.557
		c-0.117,0-0.234-0.002-0.352-0.007c-4.901-0.191-8.717-4.331-8.526-9.245l5.32-136.68H64.532c-4.904,0-8.88-3.987-8.88-8.904
		s3.976-8.904,8.88-8.904h51.253V52.933c0-6.147,4.97-11.13,11.099-11.13h113.333V8.904c0-4.917,3.976-8.904,8.88-8.904
		c4.904,0,8.88,3.987,8.88,8.904v32.898h113.338c6.131,0,11.099,4.983,11.099,11.13v28.645c0,0.762-0.077,1.507-0.223,2.226h65.26
		c0.004,0,0.01,0,0.016,0c2.412,0,4.72,0.984,6.394,2.726C455.54,88.277,456.436,90.633,456.341,93.055z"/>
</g>
<path style="fill:#981700;" d="M382.414,83.803H115.785V66.783h266.628V83.803z M386.138,406.777h-274.08
	c-8.47,0-13.897,8.265-15.716,18.183h305.515C400.036,415.049,394.608,406.777,386.138,406.777z"/>
<path style="fill:#FFFFFF;" d="M257.674,146.956c0,4.917-3.976,8.904-8.88,8.904h-1.877c-4.904,0-8.88-3.987-8.88-8.904
	c0-4.917,3.976-8.904,8.88-8.904h1.877C253.698,138.052,257.674,142.038,257.674,146.956z M342.572,140.789
	c-1.675-1.751-3.989-2.741-6.409-2.741h-48.272c-4.904,0-8.88,3.987-8.88,8.904c0,4.917,3.976,8.904,8.88,8.904h39.011
	l-8.196,195.779c-0.206,4.913,3.6,9.064,8.5,9.269c0.127,0.006,0.253,0.008,0.378,0.008c4.732,0,8.665-3.745,8.865-8.531
	l8.584-205.056C345.137,144.9,344.248,142.54,342.572,140.789z"/>
<g>
</g>
<g>
</g>
<g>
</g>
<g>
</g>
<g>
</g>
<g>
</g>
<g>
</g>
<g>
</g>
<g>
</g>
<g>
</g>
<g>
</g>
<g>
</g>
<g>
</g>
<g>
</g>
<g>
</g>
</svg>
